<svg width="184" height="208" viewBox="0 0 184 208" fill="none" xmlns="http://www.w3.org/2000/svg">
<g id="Subtract">
<mask id="path-1-inside-1_229_29934" fill="white">
<path fill-rule="evenodd" clip-rule="evenodd" d="M0 8.00001C0 3.58173 3.58172 0 8 0H176C180.418 0 184 3.58172 184 8V125.03C184 125.572 183.542 126 183 126C174.163 126 167 133.163 167 142C167 150.837 174.163 158 183 158C183.542 158 184 158.428 184 158.97V200C184 204.418 180.418 208 176 208H8C3.58172 208 0 204.418 0 200V161.73C0 159.617 1.67195 157.92 3.6928 157.301C10.2395 155.295 15 149.204 15 142C15 134.796 10.2395 128.705 3.69279 126.699C1.67195 126.08 0 124.383 0 122.27V8.00001Z"/>
</mask>
<path fill-rule="evenodd" clip-rule="evenodd" d="M0 8.00001C0 3.58173 3.58172 0 8 0H176C180.418 0 184 3.58172 184 8V125.03C184 125.572 183.542 126 183 126C174.163 126 167 133.163 167 142C167 150.837 174.163 158 183 158C183.542 158 184 158.428 184 158.97V200C184 204.418 180.418 208 176 208H8C3.58172 208 0 204.418 0 200V161.73C0 159.617 1.67195 157.92 3.6928 157.301C10.2395 155.295 15 149.204 15 142C15 134.796 10.2395 128.705 3.69279 126.699C1.67195 126.08 0 124.383 0 122.27V8.00001Z" fill="#FDE6E9" fill-opacity="0.5"/>
<path d="M3.69279 126.699L3.83924 126.221L3.69279 126.699ZM3.6928 157.301L3.54635 156.823L3.6928 157.301ZM8 -0.5C6.84839 -0.5 5.74908 -0.270708 4.74617 0.145183L5.12922 1.06891C6.01284 0.702488 6.98214 0.5 8 0.5V-0.5ZM0.145181 4.74618C-0.270709 5.74909 -0.5 6.8484 -0.5 8.00001H0.5C0.5 6.98215 0.702487 6.01284 1.06891 5.12923L0.145181 4.74618ZM-0.5 8.00001V12.0811H0.5V8.00001H-0.5ZM-0.5 20.2432V28.4053H0.5V20.2432H-0.5ZM-0.5 36.5675V44.7296H0.5V36.5675H-0.5ZM-0.5 52.8917V61.0538H0.5V52.8917H-0.5ZM-0.5 69.216V77.3781H0.5V69.216H-0.5ZM-0.5 85.5402V93.7024H0.5V85.5402H-0.5ZM-0.5 101.864V110.027H0.5V101.864H-0.5ZM-0.5 118.189V122.27H0.5V118.189H-0.5ZM-0.5 122.27C-0.5 122.869 -0.380734 123.437 -0.167191 123.963L0.759186 123.586C0.592081 123.175 0.5 122.734 0.5 122.27H-0.5ZM2.0276 126.486C2.49781 126.779 3.01087 127.013 3.54634 127.177L3.83924 126.221C3.3866 126.082 2.95326 125.885 2.55744 125.638L2.0276 126.486ZM3.54634 127.177C5.13994 127.665 6.62452 128.404 7.95434 129.347L8.53271 128.531C7.11736 127.527 5.53664 126.741 3.83924 126.221L3.54634 127.177ZM13.7254 137.148C14.2279 138.673 14.5 140.304 14.5 142H15.5C15.5 140.197 15.2106 138.46 14.6752 136.835L13.7254 137.148ZM14.5 142C14.5 143.696 14.2279 145.327 13.7254 146.852L14.6752 147.165C15.2106 145.54 15.5 143.803 15.5 142H14.5ZM7.95434 154.653C6.62453 155.596 5.13994 156.335 3.54635 156.823L3.83924 157.779C5.53664 157.259 7.11736 156.473 8.53271 155.469L7.95434 154.653ZM3.54635 156.823C3.01088 156.987 2.49781 157.221 2.0276 157.514L2.55744 158.362C2.95326 158.115 3.38661 157.917 3.83924 157.779L3.54635 156.823ZM-0.167191 160.037C-0.380734 160.563 -0.5 161.131 -0.5 161.73H0.5C0.5 161.266 0.592081 160.825 0.759187 160.414L-0.167191 160.037ZM-0.5 161.73V166.514H0.5V161.73H-0.5ZM-0.5 176.081V185.649H0.5V176.081H-0.5ZM-0.5 195.216V200H0.5V195.216H-0.5ZM-0.5 200C-0.5 201.152 -0.270709 202.251 0.145181 203.254L1.06891 202.871C0.702487 201.987 0.5 201.018 0.5 200H-0.5ZM4.74617 207.855C5.74908 208.271 6.84839 208.5 8 208.5V207.5C6.98214 207.5 6.01284 207.298 5.12922 206.931L4.74617 207.855ZM8 208.5H11.8182V207.5H8V208.5ZM19.4545 208.5H27.0909V207.5H19.4545V208.5ZM34.7273 208.5H42.3636V207.5H34.7273V208.5ZM50 208.5H57.6364V207.5H50V208.5ZM65.2727 208.5H72.9091V207.5H65.2727V208.5ZM80.5454 208.5H88.1818V207.5H80.5454V208.5ZM95.8182 208.5H103.455V207.5H95.8182V208.5ZM111.091 208.5H118.727V207.5H111.091V208.5ZM126.364 208.5H134V207.5H126.364V208.5ZM141.636 208.5H149.273V207.5H141.636V208.5ZM156.909 208.5H164.545V207.5H156.909V208.5ZM172.182 208.5H176V207.5H172.182V208.5ZM176 208.5C177.152 208.5 178.251 208.271 179.254 207.855L178.871 206.931C177.987 207.298 177.018 207.5 176 207.5V208.5ZM183.855 203.254C184.271 202.251 184.5 201.152 184.5 200H183.5C183.5 201.018 183.298 201.987 182.931 202.871L183.855 203.254ZM184.5 200V196.581H183.5V200H184.5ZM184.5 189.742V182.904H183.5V189.742H184.5ZM184.5 176.066V169.227H183.5V176.066H184.5ZM184.5 162.389V158.97H183.5V162.389H184.5ZM184.5 158.97C184.5 158.766 184.457 158.571 184.38 158.394L183.464 158.794C183.487 158.847 183.5 158.906 183.5 158.97H184.5ZM183.563 157.608C183.388 157.538 183.197 157.5 183 157.5V158.5C183.068 158.5 183.133 158.513 183.193 158.537L183.563 157.608ZM183 157.5C181.964 157.5 180.953 157.398 179.974 157.205L179.78 158.186C180.822 158.392 181.899 158.5 183 158.5V157.5ZM174.388 154.89C172.698 153.758 171.242 152.302 170.11 150.612L169.279 151.168C170.484 152.967 172.033 154.516 173.832 155.721L174.388 154.89ZM167.795 145.026C167.602 144.047 167.5 143.036 167.5 142H166.5C166.5 143.101 166.608 144.178 166.814 145.22L167.795 145.026ZM167.5 142C167.5 140.964 167.602 139.953 167.795 138.974L166.814 138.78C166.608 139.822 166.5 140.899 166.5 142H167.5ZM170.11 133.388C171.242 131.698 172.698 130.242 174.388 129.11L173.832 128.279C172.033 129.484 170.484 131.033 169.279 132.832L170.11 133.388ZM179.974 126.795C180.953 126.602 181.964 126.5 183 126.5V125.5C181.899 125.5 180.822 125.608 179.78 125.814L179.974 126.795ZM183 126.5C183.197 126.5 183.388 126.462 183.563 126.392L183.193 125.463C183.133 125.487 183.068 125.5 183 125.5V126.5ZM184.38 125.606C184.457 125.429 184.5 125.234 184.5 125.03H183.5C183.5 125.094 183.487 125.153 183.464 125.206L184.38 125.606ZM184.5 125.03V120.85H183.5V125.03H184.5ZM184.5 112.491V104.132H183.5V112.491H184.5ZM184.5 95.7726V87.4133H183.5V95.7726H184.5ZM184.5 79.054V70.6947H183.5V79.054H184.5ZM184.5 62.3354V53.9761H183.5V62.3354H184.5ZM184.5 45.6168V37.2575H183.5V45.6168H184.5ZM184.5 28.8982V20.539H183.5V28.8982H184.5ZM184.5 12.1797V8H183.5V12.1797H184.5ZM184.5 8C184.5 6.84839 184.271 5.74908 183.855 4.74617L182.931 5.12922C183.298 6.01284 183.5 6.98214 183.5 8H184.5ZM179.254 0.145182C178.251 -0.270708 177.152 -0.5 176 -0.5V0.5C177.018 0.5 177.987 0.702487 178.871 1.06891L179.254 0.145182ZM176 -0.5H172.182V0.5H176V-0.5ZM164.545 -0.5H156.909V0.5H164.545V-0.5ZM149.273 -0.5H141.636V0.5H149.273V-0.5ZM134 -0.5H126.364V0.5H134V-0.5ZM118.727 -0.5H111.091V0.5H118.727V-0.5ZM103.455 -0.5H95.8182V0.5H103.455V-0.5ZM88.1818 -0.5H80.5455V0.5H88.1818V-0.5ZM72.9091 -0.5H65.2728V0.5H72.9091V-0.5ZM57.6364 -0.5H50V0.5H57.6364V-0.5ZM42.3637 -0.5H34.7273V0.5H42.3637V-0.5ZM27.0909 -0.5H19.4546V0.5H27.0909V-0.5ZM11.8182 -0.5H8V0.5H11.8182V-0.5ZM3.69279 126.699L3.98569 125.743L3.69279 126.699ZM3.6928 157.301L3.3999 156.345L3.6928 157.301ZM8 -1C6.78152 -1 5.6172 -0.757306 4.55464 -0.31668L5.32075 1.53077C6.14472 1.18909 7.04902 1 8 1V-1ZM-0.316682 4.55465C-0.757307 5.61721 -1 6.78153 -1 8.00001H1C1 7.04902 1.18908 6.14472 1.53077 5.32076L-0.316682 4.55465ZM-1 8.00001V12.0811H1V8.00001H-1ZM-1 20.2432V28.4053H1V20.2432H-1ZM-1 36.5675V44.7296H1V36.5675H-1ZM-1 52.8917V61.0538H1V52.8917H-1ZM-1 69.216V77.3781H1V69.216H-1ZM-1 85.5402V93.7024H1V85.5402H-1ZM-1 101.864V110.027H1V101.864H-1ZM-1 118.189V122.27H1V118.189H-1ZM-1 122.27C-1 122.936 -0.867142 123.569 -0.63038 124.151L1.22237 123.398C1.07849 123.044 1 122.666 1 122.27H-1ZM1.76268 126.91C2.27009 127.227 2.82301 127.479 3.3999 127.655L3.98569 125.743C3.57447 125.617 3.18098 125.438 2.82236 125.214L1.76268 126.91ZM3.3999 127.655C4.94159 128.128 6.37811 128.842 7.66515 129.754L8.8219 128.123C7.36378 127.089 5.73499 126.279 3.98569 125.743L3.3999 127.655ZM13.2505 137.304C13.7366 138.78 14 140.358 14 142H16C16 140.143 15.7019 138.354 15.1501 136.678L13.2505 137.304ZM14 142C14 143.642 13.7366 145.22 13.2505 146.696L15.1501 147.322C15.7019 145.646 16 143.857 16 142H14ZM7.66516 154.246C6.37811 155.158 4.94159 155.872 3.3999 156.345L3.98569 158.257C5.73499 157.721 7.36378 156.911 8.8219 155.877L7.66516 154.246ZM3.3999 156.345C2.82301 156.521 2.27009 156.773 1.76268 157.09L2.82237 158.786C3.18099 158.562 3.57447 158.383 3.98569 158.257L3.3999 156.345ZM-0.630379 159.849C-0.867142 160.431 -1 161.064 -1 161.73H1C1 161.334 1.07849 160.956 1.22238 160.602L-0.630379 159.849ZM-1 161.73V166.514H1V161.73H-1ZM-1 176.081V185.649H1V176.081H-1ZM-1 195.216V200H1V195.216H-1ZM-1 200C-1 201.218 -0.757306 202.383 -0.316681 203.445L1.53077 202.679C1.18909 201.855 1 200.951 1 200H-1ZM4.55464 208.317C5.6172 208.757 6.78152 209 8 209V207C7.04902 207 6.14472 206.811 5.32075 206.469L4.55464 208.317ZM8 209H11.8182V207H8V209ZM19.4545 209H27.0909V207H19.4545V209ZM34.7273 209H42.3636V207H34.7273V209ZM50 209H57.6364V207H50V209ZM65.2727 209H72.9091V207H65.2727V209ZM80.5454 209H88.1818V207H80.5454V209ZM95.8182 209H103.455V207H95.8182V209ZM111.091 209H118.727V207H111.091V209ZM126.364 209H134V207H126.364V209ZM141.636 209H149.273V207H141.636V209ZM156.909 209H164.545V207H156.909V209ZM172.182 209H176V207H172.182V209ZM176 209C177.218 209 178.383 208.757 179.445 208.317L178.679 206.469C177.855 206.811 176.951 207 176 207V209ZM184.317 203.445C184.757 202.383 185 201.218 185 200H183C183 200.951 182.811 201.855 182.469 202.679L184.317 203.445ZM185 200V196.581H183V200H185ZM185 189.742V182.904H183V189.742H185ZM185 176.066V169.227H183V176.066H185ZM185 162.389V158.97H183V162.389H185ZM185 158.97C185 158.696 184.943 158.433 184.839 158.195L183.005 158.993C183.004 158.99 183.002 158.986 183.001 158.981C183 158.976 183 158.973 183 158.97H185ZM183.747 157.143C183.515 157.051 183.262 157 183 157V159C183.004 159 183.006 159.001 183.008 159.001L183.747 157.143ZM183 157C181.997 157 181.018 156.902 180.071 156.714L179.683 158.676C180.757 158.889 181.866 159 183 159V157ZM174.666 154.474C173.03 153.379 171.621 151.97 170.526 150.334L168.864 151.446C170.105 153.3 171.7 154.895 173.554 156.136L174.666 154.474ZM168.286 144.929C168.098 143.982 168 143.003 168 142H166C166 143.134 166.111 144.243 166.324 145.317L168.286 144.929ZM168 142C168 140.997 168.098 140.018 168.286 139.071L166.324 138.683C166.111 139.757 166 140.866 166 142H168ZM170.526 133.666C171.621 132.03 173.03 130.621 174.666 129.526L173.554 127.864C171.7 129.105 170.105 130.7 168.864 132.554L170.526 133.666ZM180.071 127.286C181.018 127.098 181.997 127 183 127V125C181.866 125 180.757 125.111 179.683 125.324L180.071 127.286ZM183 127C183.262 127 183.515 126.949 183.747 126.857L183.008 124.999C183.006 124.999 183.004 125 183 125V127ZM184.839 125.805C184.943 125.567 185 125.304 185 125.03H183C183 125.027 183 125.024 183.001 125.019C183.002 125.014 183.004 125.01 183.005 125.007L184.839 125.805ZM185 125.03V120.85H183V125.03H185ZM185 112.491V104.132H183V112.491H185ZM185 95.7726V87.4133H183V95.7726H185ZM185 79.054V70.6947H183V79.054H185ZM185 62.3354V53.9761H183V62.3354H185ZM185 45.6168V37.2575H183V45.6168H185ZM185 28.8982V20.539H183V28.8982H185ZM185 12.1797V8H183V12.1797H185ZM185 8C185 6.78152 184.757 5.6172 184.317 4.55464L182.469 5.32075C182.811 6.14472 183 7.04902 183 8H185ZM179.445 -0.316681C178.383 -0.757306 177.218 -1 176 -1V1C176.951 1 177.855 1.18909 178.679 1.53077L179.445 -0.316681ZM176 -1H172.182V1H176V-1ZM164.545 -1H156.909V1H164.545V-1ZM149.273 -1H141.636V1H149.273V-1ZM134 -1H126.364V1H134V-1ZM118.727 -1H111.091V1H118.727V-1ZM103.455 -1H95.8182V1H103.455V-1ZM88.1818 -1H80.5455V1H88.1818V-1ZM72.9091 -1H65.2728V1H72.9091V-1ZM57.6364 -1H50V1H57.6364V-1ZM42.3637 -1H34.7273V1H42.3637V-1ZM27.0909 -1H19.4546V1H27.0909V-1ZM11.8182 -1H8V1H11.8182V-1Z" fill="#E60023" mask="url(#path-1-inside-1_229_29934)"/>
</g>
</svg>
