<svg width="20" height="20" viewBox="0 0 20 20" fill="none" xmlns="http://www.w3.org/2000/svg">
<g id="3D-software">
<path id="Vector" fill-rule="evenodd" clip-rule="evenodd" d="M16.2501 3.75H18.7501V5H16.2501V7.5H15.0001V5H12.5001V3.75H15.0001V1.25H16.2501V3.75ZM7.80638 5.07214L13.4314 8.19714C13.529 8.25257 13.61 8.33307 13.666 8.4303C13.722 8.52754 13.7511 8.63798 13.7501 8.7502V15.0002C13.7499 15.1105 13.7202 15.2188 13.6642 15.3138C13.6082 15.4089 13.5278 15.4873 13.4314 15.5409L7.80638 18.6659C7.71268 18.7185 7.60755 18.7474 7.50013 18.7502C7.39463 18.7478 7.29145 18.7188 7.20013 18.6659L1.57513 15.5409C1.47742 15.4874 1.39577 15.4088 1.33863 15.3132C1.28149 15.2176 1.25094 15.1085 1.25013 14.9971V8.7502C1.2479 8.6392 1.27506 8.52959 1.32884 8.43246C1.38262 8.33534 1.46112 8.25416 1.55638 8.19714L7.18138 5.07214C7.27639 5.01728 7.38417 4.9884 7.49388 4.9884C7.60359 4.9884 7.71136 5.01728 7.80638 5.07214ZM2.50013 14.6284L6.87513 17.0596V12.2346L2.50013 9.80339V14.6284ZM3.16263 8.7502L7.50013 11.1534L11.8376 8.74714L7.50013 6.33464L3.16263 8.7502ZM8.12513 17.0596L12.5001 14.6284V9.80339L8.12513 12.2346V17.0596Z" fill="black"/>
</g>
</svg>
