<svg width="20" height="20" viewBox="0 0 20 20" fill="none" xmlns="http://www.w3.org/2000/svg">
<g id="delivery">
<path id="Vector" fill-rule="evenodd" clip-rule="evenodd" d="M16.8243 6.004L18.6993 10.379C18.7327 10.4567 18.75 10.5404 18.75 10.625V15C18.75 15.1658 18.6842 15.3247 18.5669 15.4419C18.4497 15.5592 18.2908 15.625 18.125 15.625H16.7862C16.6499 16.1611 16.3389 16.6365 15.9022 16.976C15.4655 17.3156 14.9282 17.4999 14.375 17.4999C13.8219 17.4999 13.2845 17.3156 12.8478 16.976C12.4112 16.6365 12.1001 16.1611 11.9638 15.625H8.03619C7.88407 16.2142 7.5223 16.7276 7.01869 17.0691C6.51508 17.4106 5.9042 17.5567 5.30057 17.4801C4.69693 17.4034 4.14198 17.1092 3.73974 16.6526C3.3375 16.1961 3.11558 15.6085 3.11558 15C3.11558 14.3915 3.3375 13.8039 3.73974 13.3474C4.14198 12.8908 4.69693 12.5966 5.30057 12.5199C5.9042 12.4433 6.51508 12.5894 7.01869 12.9309C7.5223 13.2724 7.88407 13.7858 8.03619 14.375H11.9638C12.047 14.0564 12.1924 13.7574 12.3917 13.4952C12.591 13.2331 12.8402 13.013 13.125 12.8476V5H3.75V3.75H13.75C13.9158 3.75 14.0747 3.81585 14.1919 3.93306C14.3092 4.05027 14.375 4.20924 14.375 4.375V5.625H16.25C16.3723 5.62493 16.492 5.66081 16.5941 5.72819C16.6962 5.79558 16.7763 5.89149 16.8243 6.004ZM4.93054 16.0393C5.1361 16.1767 5.37778 16.25 5.625 16.25C5.95641 16.2496 6.27413 16.1178 6.50847 15.8835C6.74281 15.6491 6.87462 15.3314 6.875 15C6.875 14.7528 6.80169 14.5111 6.66434 14.3055C6.52699 14.1 6.33177 13.9398 6.10336 13.8451C5.87495 13.7505 5.62362 13.7258 5.38114 13.774C5.13867 13.8222 4.91594 13.9413 4.74112 14.1161C4.56631 14.2909 4.44725 14.5137 4.39902 14.7561C4.35079 14.9986 4.37555 15.2499 4.47016 15.4784C4.56476 15.7068 4.72498 15.902 4.93054 16.0393ZM15.838 6.875H14.375V10H17.1774L15.838 6.875ZM13.6805 16.0393C13.8861 16.1767 14.1278 16.25 14.375 16.25C14.7064 16.2496 15.0241 16.1178 15.2585 15.8835C15.4928 15.6491 15.6246 15.3314 15.625 15C15.625 14.7528 15.5517 14.5111 15.4143 14.3055C15.277 14.1 15.0818 13.9398 14.8534 13.8451C14.625 13.7505 14.3736 13.7258 14.1311 13.774C13.8887 13.8222 13.6659 13.9413 13.4911 14.1161C13.3163 14.2909 13.1973 14.5137 13.149 14.7561C13.1008 14.9986 13.1255 15.2499 13.2202 15.4784C13.3148 15.7068 13.475 15.902 13.6805 16.0393ZM16.7862 14.375H17.5V11.25H14.375V12.5C14.9278 12.5016 15.4644 12.6865 15.9007 13.0259C16.337 13.3652 16.6485 13.8397 16.7862 14.375ZM7.5 6.875H1.25V8.125H7.5V6.875ZM10 10H2.5V11.25H10V10Z" fill="black"/>
</g>
</svg>
