<svg width="20" height="20" viewBox="0 0 20 20" fill="none" xmlns="http://www.w3.org/2000/svg">
<g id="location--star">
<path id="Vector" fill-rule="evenodd" clip-rule="evenodd" d="M4.72782 12.5321L10 18.75L15.2744 12.5295C15.3023 12.4964 15.4898 12.2499 15.4898 12.2499L15.4908 12.2483C16.391 11.0624 16.8772 9.61389 16.875 8.125C16.875 6.30164 16.1507 4.55295 14.8614 3.26364C13.5721 1.97433 11.8234 1.25 10 1.25C8.17664 1.25 6.42796 1.97433 5.13865 3.26364C3.84934 4.55295 3.12501 6.30164 3.12501 8.125C3.1229 9.6145 3.60951 11.0636 4.51019 12.2499C4.51019 12.2499 4.69788 12.4964 4.72782 12.5321ZM5.53789 11.5364C5.52003 11.5128 5.508 11.497 5.50782 11.4969C4.77156 10.5271 4.37362 9.34261 4.37501 8.125C4.37501 6.63316 4.96764 5.20242 6.02253 4.14752C7.07742 3.09263 8.50816 2.5 10 2.5C11.4918 2.5 12.9226 3.09263 13.9775 4.14752C15.0324 5.20242 15.625 6.63316 15.625 8.125C15.6264 9.34195 15.2288 10.5258 14.493 11.4951C14.4927 11.4956 14.3462 11.6892 14.3188 11.7237L10 16.8174L5.68694 11.7309C5.66321 11.7013 5.58242 11.595 5.53789 11.5364ZM11.195 6.66687L10 4.375L8.875 6.66687L6.25 6.98313L8.125 8.70375L7.75 11.25L10 9.8175L12.25 11.25L11.875 8.70375L13.75 6.98313L11.195 6.66687Z" fill="black"/>
</g>
</svg>
