<svg width="20" height="20" viewBox="0 0 20 20" fill="none" xmlns="http://www.w3.org/2000/svg">
<g id="monetization_on">
<mask id="mask0_891_6088" style="mask-type:alpha" maskUnits="userSpaceOnUse" x="0" y="0" width="20" height="20">
<rect id="Bounding box" width="20" height="20" fill="#D9D9D9"/>
</mask>
<g mask="url(#mask0_891_6088)">
<path id="monetization_on_2" d="M9.2513 15.8332H10.7096V14.7915C11.4041 14.6665 12.0013 14.3957 12.5013 13.979C13.0013 13.5623 13.2513 12.9443 13.2513 12.1248C13.2513 11.5415 13.0846 11.0068 12.7513 10.5207C12.418 10.0346 11.7513 9.61095 10.7513 9.24984C9.91797 8.97206 9.34158 8.729 9.02214 8.52067C8.70269 8.31234 8.54297 8.02762 8.54297 7.6665C8.54297 7.30539 8.67144 7.02067 8.92839 6.81234C9.18533 6.604 9.55686 6.49984 10.043 6.49984C10.4874 6.49984 10.8346 6.60748 11.0846 6.82275C11.3346 7.03803 11.5152 7.30539 11.6263 7.62484L12.9596 7.08317C12.8069 6.59706 12.5256 6.17345 12.1159 5.81234C11.7062 5.45123 11.2513 5.24984 10.7513 5.20817V4.1665H9.29297V5.20817C8.59853 5.36095 8.05686 5.6665 7.66797 6.12484C7.27908 6.58317 7.08464 7.09706 7.08464 7.6665C7.08464 8.31928 7.27561 8.84706 7.65755 9.24984C8.0395 9.65262 8.64019 9.99984 9.45964 10.2915C10.3346 10.6109 10.9423 10.8957 11.2826 11.1457C11.6228 11.3957 11.793 11.7221 11.793 12.1248C11.793 12.5832 11.6298 12.92 11.3034 13.1353C10.977 13.3505 10.5846 13.4582 10.1263 13.4582C9.66797 13.4582 9.26172 13.3158 8.90755 13.0311C8.55339 12.7464 8.29297 12.3193 8.1263 11.7498L6.7513 12.2915C6.94575 12.9582 7.24783 13.4964 7.65755 13.9061C8.06727 14.3158 8.59853 14.5971 9.2513 14.7498V15.8332ZM10.0013 18.3332C8.84852 18.3332 7.76519 18.1144 6.7513 17.6769C5.73741 17.2394 4.85547 16.6457 4.10547 15.8957C3.35547 15.1457 2.76172 14.2637 2.32422 13.2498C1.88672 12.2359 1.66797 11.1526 1.66797 9.99984C1.66797 8.84706 1.88672 7.76373 2.32422 6.74984C2.76172 5.73595 3.35547 4.854 4.10547 4.104C4.85547 3.354 5.73741 2.76025 6.7513 2.32275C7.76519 1.88525 8.84852 1.6665 10.0013 1.6665C11.1541 1.6665 12.2374 1.88525 13.2513 2.32275C14.2652 2.76025 15.1471 3.354 15.8971 4.104C16.6471 4.854 17.2409 5.73595 17.6784 6.74984C18.1159 7.76373 18.3346 8.84706 18.3346 9.99984C18.3346 11.1526 18.1159 12.2359 17.6784 13.2498C17.2409 14.2637 16.6471 15.1457 15.8971 15.8957C15.1471 16.6457 14.2652 17.2394 13.2513 17.6769C12.2374 18.1144 11.1541 18.3332 10.0013 18.3332ZM10.0013 16.6665C11.8624 16.6665 13.4388 16.0207 14.7305 14.729C16.0221 13.4373 16.668 11.8609 16.668 9.99984C16.668 8.13873 16.0221 6.56234 14.7305 5.27067C13.4388 3.979 11.8624 3.33317 10.0013 3.33317C8.14019 3.33317 6.5638 3.979 5.27214 5.27067C3.98047 6.56234 3.33464 8.13873 3.33464 9.99984C3.33464 11.8609 3.98047 13.4373 5.27214 14.729C6.5638 16.0207 8.14019 16.6665 10.0013 16.6665Z" fill="#1C1B1F"/>
</g>
</g>
</svg>
