<svg width="20" height="20" viewBox="0 0 20 20" fill="none" xmlns="http://www.w3.org/2000/svg">
<g id="payments">
<mask id="mask0_699_5312" style="mask-type:alpha" maskUnits="userSpaceOnUse" x="0" y="0" width="20" height="20">
<rect id="Bounding box" width="20" height="20" fill="#D9D9D9"/>
</mask>
<g mask="url(#mask0_699_5312)">
<path id="payments_2" d="M11.6667 10.8335C10.9722 10.8335 10.382 10.5904 9.89584 10.1043C9.40973 9.61822 9.16668 9.02794 9.16668 8.3335C9.16668 7.63905 9.40973 7.04877 9.89584 6.56266C10.382 6.07655 10.9722 5.8335 11.6667 5.8335C12.3611 5.8335 12.9514 6.07655 13.4375 6.56266C13.9236 7.04877 14.1667 7.63905 14.1667 8.3335C14.1667 9.02794 13.9236 9.61822 13.4375 10.1043C12.9514 10.5904 12.3611 10.8335 11.6667 10.8335ZM5.83334 13.3335C5.37501 13.3335 4.98265 13.1703 4.65626 12.8439C4.32987 12.5175 4.16668 12.1252 4.16668 11.6668V5.00016C4.16668 4.54183 4.32987 4.14947 4.65626 3.82308C4.98265 3.49669 5.37501 3.3335 5.83334 3.3335H17.5C17.9583 3.3335 18.3507 3.49669 18.6771 3.82308C19.0035 4.14947 19.1667 4.54183 19.1667 5.00016V11.6668C19.1667 12.1252 19.0035 12.5175 18.6771 12.8439C18.3507 13.1703 17.9583 13.3335 17.5 13.3335H5.83334ZM7.50001 11.6668H15.8333C15.8333 11.2085 15.9965 10.8161 16.3229 10.4897C16.6493 10.1634 17.0417 10.0002 17.5 10.0002V6.66683C17.0417 6.66683 16.6493 6.50363 16.3229 6.17725C15.9965 5.85086 15.8333 5.4585 15.8333 5.00016H7.50001C7.50001 5.4585 7.33681 5.85086 7.01043 6.17725C6.68404 6.50363 6.29168 6.66683 5.83334 6.66683V10.0002C6.29168 10.0002 6.68404 10.1634 7.01043 10.4897C7.33681 10.8161 7.50001 11.2085 7.50001 11.6668ZM16.6667 16.6668H2.50001C2.04168 16.6668 1.64932 16.5036 1.32293 16.1772C0.996538 15.8509 0.833344 15.4585 0.833344 15.0002V5.8335H2.50001V15.0002H16.6667V16.6668Z" fill="#1C1B1F"/>
</g>
</g>
</svg>
