<svg width="20" height="20" viewBox="0 0 20 20" fill="none" xmlns="http://www.w3.org/2000/svg">
<g id="percentage--filled">
<path id="Vector" fill-rule="evenodd" clip-rule="evenodd" d="M5.62501 8.75C5.00694 8.75 4.40275 8.56672 3.88885 8.22334C3.37495 7.87996 2.97441 7.39191 2.73788 6.82089C2.50136 6.24987 2.43947 5.62154 2.56005 5.01534C2.68063 4.40915 2.97826 3.85233 3.4153 3.41529C3.85234 2.97825 4.40916 2.68063 5.01535 2.56005C5.62154 2.43947 6.24987 2.50135 6.82089 2.73788C7.39191 2.9744 7.87997 3.37494 8.22335 3.88884C8.56673 4.40275 8.75001 5.00693 8.75001 5.625C8.7491 6.45352 8.41956 7.24785 7.83371 7.8337C7.24786 8.41956 6.45353 8.74909 5.62501 8.75ZM16.6162 2.50002L2.5 16.6162L3.3838 17.5L17.5 3.38382L16.6162 2.50002ZM12.6389 16.9733C13.1528 17.3167 13.7569 17.5 14.375 17.5C15.2035 17.4991 15.9979 17.1696 16.5837 16.5837C17.1696 15.9979 17.4991 15.2035 17.5 14.375C17.5 13.7569 17.3167 13.1527 16.9734 12.6388C16.63 12.1249 16.1419 11.7244 15.5709 11.4879C14.9999 11.2514 14.3715 11.1895 13.7653 11.31C13.1592 11.4306 12.6023 11.7283 12.1653 12.1653C11.7283 12.6023 11.4306 13.1592 11.3101 13.7653C11.1895 14.3715 11.2514 14.9999 11.4879 15.5709C11.7244 16.1419 12.1249 16.63 12.6389 16.9733Z" fill="black"/>
</g>
</svg>
