<svg width="20" height="20" viewBox="0 0 20 20" fill="none" xmlns="http://www.w3.org/2000/svg">
<g id="settings">
<path id="Vector" fill-rule="evenodd" clip-rule="evenodd" d="M16.875 10.0001V10.4751L18.0563 11.5564C18.2743 11.7476 18.4191 12.0086 18.4659 12.2948C18.5126 12.581 18.4584 12.8745 18.3125 13.1251L16.8875 15.6251C16.7779 15.815 16.6203 15.9726 16.4305 16.0823C16.2408 16.192 16.0255 16.2499 15.8063 16.2501C15.6704 16.2512 15.5353 16.2301 15.4063 16.1876L13.8938 15.6751C13.6294 15.8494 13.3538 16.006 13.0688 16.1439L12.75 17.7189C12.6929 18.0066 12.5363 18.2651 12.3078 18.4491C12.0793 18.633 11.7933 18.7308 11.5 18.7251H8.55001C8.25669 18.7308 7.97075 18.633 7.74222 18.4491C7.5137 18.2651 7.35716 18.0066 7.30001 17.7189L6.98126 16.1439C6.69824 16.006 6.42472 15.8494 6.16251 15.6751L4.64376 16.1876C4.5147 16.2301 4.3796 16.2512 4.24376 16.2501C4.02455 16.2499 3.80926 16.192 3.61948 16.0823C3.4297 15.9726 3.27211 15.815 3.16251 15.6251L1.68751 13.1251C1.53494 12.8721 1.47697 12.5731 1.52388 12.2813C1.57079 11.9896 1.71955 11.7239 1.94376 11.5314L3.12501 10.4814V10.0001V9.52513L1.94376 8.44388C1.72571 8.25271 1.58091 7.99168 1.53416 7.70548C1.48741 7.41929 1.54162 7.12575 1.68751 6.87513L3.16251 4.37513C3.27211 4.1853 3.4297 4.02762 3.61948 3.91792C3.80926 3.80822 4.02455 3.75036 4.24376 3.75013C4.37824 3.74098 4.51332 3.75365 4.64376 3.78763L6.13126 4.32513C6.39561 4.15085 6.67121 3.99426 6.95626 3.85638L7.27501 2.28138C7.33216 1.99364 7.4887 1.73516 7.71722 1.5512C7.94575 1.36723 8.23169 1.26951 8.52501 1.27513H11.45C11.7433 1.26951 12.0293 1.36723 12.2578 1.5512C12.4863 1.73516 12.6429 1.99364 12.7 2.28138L13.0188 3.85638C13.3018 3.99429 13.5753 4.15089 13.8375 4.32513L15.3563 3.81263C15.4853 3.7702 15.6204 3.74909 15.7563 3.75013C15.9755 3.75036 16.1908 3.80822 16.3805 3.91792C16.5703 4.02762 16.7279 4.1853 16.8375 4.37513L18.3125 6.87513C18.4673 7.12612 18.5283 7.42374 18.4848 7.71538C18.4414 8.00702 18.2962 8.27391 18.075 8.46888L16.875 9.51888V10.0001ZM13.6125 14.2751L15.7563 15.0001L17.2313 12.5001L15.5313 10.9564C15.6468 10.3094 15.6468 9.64709 15.5313 9.00013L17.2313 7.50013L15.7563 5.00013L13.6063 5.70013C13.1027 5.28085 12.5322 4.94915 11.9188 4.71888L11.475 2.50013H8.52501L8.08126 4.74388C7.46288 4.96779 6.88934 5.30006 6.38751 5.72513L4.24376 5.00013L2.76876 7.50013L4.46876 9.04388C4.35319 9.69085 4.35319 10.3532 4.46876 11.0001L2.76876 12.5001L4.24376 15.0001L6.39376 14.3001C6.89733 14.7194 7.46777 15.0511 8.08126 15.2814L8.52501 17.5001H11.475L11.9188 15.2564C12.5371 15.0325 13.1107 14.7002 13.6125 14.2751ZM7.91661 13.1182C8.5333 13.5302 9.25832 13.7502 10 13.7502C10.4939 13.7552 10.9837 13.6616 11.441 13.4749C11.8982 13.2883 12.3136 13.0122 12.6628 12.663C13.012 12.3138 13.2881 11.8984 13.4748 11.4412C13.6614 10.9839 13.755 10.494 13.75 10.0002C13.75 9.2585 13.5301 8.53348 13.118 7.9168C12.706 7.30011 12.1203 6.81947 11.4351 6.53564C10.7498 6.25181 9.99584 6.17755 9.26841 6.32224C8.54098 6.46693 7.8728 6.82409 7.34835 7.34853C6.8239 7.87298 6.46675 8.54117 6.32206 9.2686C6.17736 9.99602 6.25162 10.75 6.53545 11.4352C6.81928 12.1205 7.29993 12.7061 7.91661 13.1182ZM9.03426 7.6748C9.34105 7.55189 9.66959 7.49249 10 7.50018C10.3304 7.49249 10.6589 7.55189 10.9657 7.6748C11.2725 7.79772 11.5512 7.98158 11.7849 8.21528C12.0186 8.44898 12.2025 8.72765 12.3254 9.03444C12.4483 9.34124 12.5077 9.66978 12.5 10.0002C12.5077 10.3306 12.4483 10.6591 12.3254 10.9659C12.2025 11.2727 12.0186 11.5514 11.7849 11.7851C11.5512 12.0188 11.2725 12.2027 10.9657 12.3256C10.6589 12.4485 10.3304 12.5079 10 12.5002C9.66959 12.5079 9.34105 12.4485 9.03426 12.3256C8.72747 12.2027 8.44879 12.0188 8.2151 11.7851C7.9814 11.5514 7.79753 11.2727 7.67462 10.9659C7.55171 10.6591 7.4923 10.3306 7.5 10.0002C7.4923 9.66978 7.55171 9.34124 7.67462 9.03444C7.79753 8.72765 7.9814 8.44898 8.2151 8.21528C8.44879 7.98158 8.72747 7.79772 9.03426 7.6748Z" fill="black"/>
</g>
</svg>
